HIERARCHY
ROOT Hips
{
  OFFSET 1.44925e-005 102.336 -0.101585
  CHANNELS 6 Xposition Yposition Zposition Zrotation Xrotation Yrotation
  JOINT LeftUpLeg
  {
    OFFSET 8.9458 -8.66707 0.101652
    CHANNELS 3 Zrotation Xrotation Yrotation
    JOINT LeftLeg
    {
      OFFSET 0 -44.4227 1.3727
      CHANNELS 3 Zrotation Xrotation Yrotation
      JOINT LeftFoot
      {
        OFFSET -0.253549 -42.0924 -1.46059
        CHANNELS 3 Zrotation Xrotation Yrotation
        JOINT LeftToes
        {
          OFFSET -0.04 -4.41509 8.4991
          CHANNELS 3 Zrotation Xrotation Yrotation
          End Site
          {
            OFFSET 0.08 -0.047448 9.77979
          }
        }
      }
    }
  }
  JOINT Spine
  {
    OFFSET 0 11.8905 0
    CHANNELS 3 Zrotation Xrotation Yrotation
    JOINT Spine1
    {
      OFFSET 0 25.6574 0.127663
      CHANNELS 3 Zrotation Xrotation Yrotation
      JOINT RightShoulder
      {
        OFFSET -8.99 -0.362252 -0.22
        CHANNELS 3 Zrotation Xrotation Yrotation
        JOINT RightArm
        {
          OFFSET -10.2827 -0.00338 0.322123
          CHANNELS 3 Zrotation Xrotation Yrotation
          JOINT RightForeArm
          {
            OFFSET -26.364 0.099144 -1.42434
            CHANNELS 3 Zrotation Xrotation Yrotation
            JOINT RightHand
            {
              OFFSET -22.0324 0.085362 1.02216
              CHANNELS 3 Zrotation Xrotation Yrotation
              End Site
              {
                OFFSET -13.3284 -0.6 1.50291
              }
            }
          }
        }
      }
      JOINT LeftShoulder1
      {
        OFFSET 8.99 -0.362252 -0.22
        CHANNELS 3 Zrotation Xrotation Yrotation
        JOINT LeftArm
        {
          OFFSET 10.2827 -0.00337999 0.322123
          CHANNELS 3 Zrotation Xrotation Yrotation
          JOINT LeftForeArm
          {
            OFFSET 26.2597 0.099144 -1.42434
            CHANNELS 3 Zrotation Xrotation Yrotation
            JOINT LeftHand
            {
              OFFSET 22.0902 0.085362 1.02216
              CHANNELS 3 Zrotation Xrotation Yrotation
              End Site
              {
                OFFSET 13.419 -0.6 1.50291
              }
            }
          }
        }
      }
      JOINT Head
      {
        OFFSET 0 8.73416 0.011341
        CHANNELS 3 Zrotation Xrotation Yrotation
        End Site
        {
          OFFSET -0.29 12.7742 2.51395
        }
      }
    }
  }
  JOINT RightUpLeg
  {
    OFFSET -8.9458 -8.66707 0.101652
    CHANNELS 3 Zrotation Xrotation Yrotation
    JOINT RightLeg
    {
      OFFSET 0 -44.4227 1.3727
      CHANNELS 3 Zrotation Xrotation Yrotation
      JOINT RightFoot
      {
        OFFSET 0.253549 -42.0924 -1.46059
        CHANNELS 3 Zrotation Xrotation Yrotation
        JOINT RightToes
        {
          OFFSET 0.04 -4.41509 8.4991
          CHANNELS 3 Zrotation Xrotation Yrotation
          End Site
          {
            OFFSET -0.08 -0.137448 9.77979
          }
        }
      }
    }
  }
}
MOTION
Frames:	7
Frame Time:	0.0333333
12.5464 100.892 1.08955 -7.39273 -2.35507 -91.3023 -2.00464 -6.32659 -0.64038 0.217446 8.12578 11.9868 -4.04989 0.940613 0.274571 -1.28122e-009 8.75267e-006 -1.47551e-008 1.73772 11.0263 -0.297936 -3.63025 -0.574997 0.51288 37.1365 1.795 0.140952 42.7736 -17.2895 8.06339 7.75339 37.4405 8.88958 -4.19432 9.84076 -3.79835 -45.0987 3.60785 -3.45215 -26.6036 -22.7089 1.20174 -4.52655 35.6914 -13.4528 5.82328 9.61819 -0.917488 -1.97288 -9.35965 -6.5218 -2.78804 8.51752 -6.11304 -1.10396 15.9036 -14.5234 7.01882 -21.2165 0.600277 0.0462048 0.000530889 0.662642 
12.5564 100.892 1.0828 -7.42804 -2.34995 -91.3198 -1.99551 -6.2937 -0.628702 0.217358 8.12634 11.9907 -4.01426 0.940613 0.274571 -1.28122e-009 8.75267e-006 -1.47551e-008 1.73598 11.0516 -0.285042 -3.61248 -0.553166 0.524099 37.0833 1.795 0.140952 42.8112 -17.4551 8.05556 7.71333 37.7871 8.84899 -4.35047 9.8281 -3.43782 -45.1268 3.60785 -3.45215 -26.553 -22.5746 1.16879 -4.58064 35.5719 -13.432 5.82328 9.61819 -0.917488 -2.00936 -9.34609 -6.55816 -2.7775 8.52488 -6.10567 -1.11272 15.9492 -14.5262 7.03154 -21.2218 0.600299 0.0462048 0.000530889 0.662642 
12.5763 100.892 1.07274 -7.47417 -2.34097 -91.3718 -1.98261 -6.25955 -0.617281 0.225079 8.13915 12.031 -3.98662 0.940613 0.274571 -1.28122e-009 8.75267e-006 -1.47551e-008 1.73803 11.1086 -0.265994 -3.61704 -0.559487 0.546057 37.0156 1.795 0.140952 42.8389 -17.5957 8.03736 7.6957 38.0269 8.80606 -4.73041 9.809 -3.03703 -45.1208 3.60691 -3.45215 -26.5243 -22.4722 1.13235 -4.64781 35.4998 -13.3812 5.82328 9.61819 -0.917488 -2.08392 -9.26232 -6.63054 -2.76797 8.51385 -6.08988 -1.1266 16.0341 -14.5006 7.04653 -21.2297 0.600331 0.0462048 0.000530889 0.662642 
12.5956 100.892 1.06356 -7.49239 -2.33173 -91.424 -1.97595 -6.25799 -0.623817 0.245216 8.15746 12.0945 -4.00265 0.940016 0.274571 -1.28122e-009 8.75267e-006 -1.47551e-008 1.75187 11.1526 -0.264505 -3.65815 -0.604223 0.555716 37.0106 1.795 0.140952 42.8157 -17.5803 8.02763 7.70131 37.971 8.81606 -4.97907 9.80033 -2.93091 -45.0485 3.60117 -3.45068 -26.5578 -22.5039 1.13764 -4.66475 35.5691 -13.3418 5.82328 9.61819 -0.917488 -2.09949 -9.11694 -6.69302 -2.76423 8.47431 -6.07426 -1.13489 16.1148 -14.4595 7.04287 -21.2433 0.600386 0.0462048 0.000530889 0.662642 
12.6093 100.892 1.05291 -7.49517 -2.32594 -91.4331 -1.97576 -6.26881 -0.643371 0.271543 8.17113 12.1212 -4.04329 0.943296 0.274571 -1.28122e-009 8.75267e-006 -1.47551e-008 1.76589 11.1806 -0.291304 -3.7228 -0.669764 0.539431 37.079 1.795 0.140952 42.7593 -17.5242 8.03693 7.69808 37.8554 8.85572 -4.93345 9.80409 -3.01479 -44.9443 3.58933 -3.44374 -26.6108 -22.5738 1.17923 -4.63574 35.6776 -13.3425 5.82328 9.61819 -0.917488 -2.01567 -8.95191 -6.7331 -2.75681 8.44848 -6.06786 -1.13329 16.151 -14.4514 7.02005 -21.2514 0.600419 0.0462048 0.000530889 0.662642 
12.6207 100.892 1.03709 -7.50929 -2.32644 -91.4046 -1.97465 -6.26868 -0.656039 0.290322 8.18641 12.0875 -4.07215 0.966027 0.274573 -1.28122e-009 8.75267e-006 -1.47551e-008 1.76518 11.2194 -0.328746 -3.78015 -0.73725 0.509478 37.1529 1.795 0.140952 42.7079 -17.5092 8.06133 7.69505 37.7827 8.8789 -4.79741 9.80982 -3.10449 -44.8633 3.57842 -3.43466 -26.6347 -22.5878 1.21251 -4.61208 35.7274 -13.3578 5.82328 9.61819 -0.917488 -1.91706 -8.78888 -6.77537 -2.74209 8.46482 -6.06757 -1.12734 16.1407 -14.4874 7.0015 -21.2429 0.600385 0.0462048 0.000530889 0.662642 
12.6334 100.892 1.01704 -7.52597 -2.33134 -91.3822 -1.96541 -6.27121 -0.650491 0.291998 8.20795 12.0393 -4.07721 0.990968 0.274575 -1.28122e-009 8.75267e-006 -1.47551e-008 1.73984 11.2576 -0.348992 -3.80031 -0.787671 0.488919 37.1765 1.795 0.140952 42.6715 -17.4611 8.09061 7.71039 37.6598 8.89122 -4.80834 9.81136 -3.15786 -44.8211 3.57294 -3.43031 -26.6388 -22.563 1.20589 -4.61792 35.7521 -13.3492 5.82328 9.61819 -0.917488 -1.8866 -8.63473 -6.83232 -2.72738 8.48412 -6.06062 -1.125 16.1283 -14.5241 7.00593 -21.2318 0.600339 0.0462048 0.000530889 0.662642 
